# xmcd
#
# Track frame offsets:
#	150
#	3669
#	23142
#	35129
#	61102
#	83371
#	107213
#	125804
#	148521
#	150935
#	174479
#	194502
#	199888
#	218544
#	238460
#	261769
#	280580
#	298758
#	318756
#	321025
#
# Disc length: 4628 seconds
#
# Revision: 83238697
# Processed by: cddbd v1.5.1PL0 Copyright (c) Steve Scherf et al.
# Submitted via: EasyCDDAExtractor 8.0.2.1
#
DISCID=1e121214
DTITLE=Eminem - Encore
DYEAR=2004
DGENRE=Rap
TTITLE0=Curtains Up (Encore Version)
TTITLE1=Evil Deeds
TTITLE2=Never Enough (Featuring 50 Cent and Nate Dogg)
TTITLE3=Yellow Brick Road
TTITLE4=Like Toy Soldiers
TTITLE5=Mosh
TTITLE6=Puke
TTITLE7=My 1St Single
TTITLE8=Paul (Skit)
TTITLE9=Rain Man
TTITLE10=Big Weenie
TTITLE11=Em Calls Paul (Skit)
TTITLE12=Just Lose It
TTITLE13=Ass Like That
TTITLE14=Spend Some Time (Featuring Obie Trice, Stat Quo and 50 Cent)
TTITLE15=Mockingbird
TTITLE16=Crazy In Love
TTITLE17=One Shot 2 Shot (Featuring D-12)
TTITLE18=Final Thought (Skit)
TTITLE19=Curtains Down (Encore Version) (Featuring Dr. Dre and 50 Cent)
EXTD=
EXTT0=
EXTT1=
EXTT2=
EXTT3=
EXTT4=
EXTT5=
EXTT6=
EXTT7=
EXTT8=
EXTT9=
EXTT10=
EXTT11=
EXTT12=
EXTT13=
EXTT14=
EXTT15=
EXTT16=
EXTT17=
EXTT18=
EXTT19=
PLAYORDER=
